<svg xmlns="http://www.w3.org/2000/svg" width="381" height="70" viewBox="0 0 381 70"><defs><style>.cls-1{fill:#fdd400;}</style></defs><g id="Logo3"><path class="cls-1" d="M44.72,6.62v56H32l0-37.82L26.9,62.64h-9l-5.35-37v37H-.23v-56H18.62q.84,5.06,1.73,11.91l2.07,14.25L25.77,6.62Z"/><path class="cls-1" d="M85.1,6.62V44.06A66.34,66.34,0,0,1,84.69,53a12.21,12.21,0,0,1-2.46,5.3,12.74,12.74,0,0,1-5.38,4.11A20.15,20.15,0,0,1,69,63.82a22.26,22.26,0,0,1-8.86-1.66,13.36,13.36,0,0,1-5.75-4.33,12.19,12.19,0,0,1-2.25-5.62q-.34-3-.34-12.44V6.62H66.35v42a16.84,16.84,0,0,0,.39,4.68,1.57,1.57,0,0,0,1.61,1,1.7,1.7,0,0,0,1.79-1.13,21.35,21.35,0,0,0,.39-5.31V6.62Z"/><path class="cls-1" d="M123,23.57H109.49V19.42a8.25,8.25,0,0,0-.51-3.7,1.93,1.93,0,0,0-1.74-.8,2.19,2.19,0,0,0-2,1.08,6.2,6.2,0,0,0-.68,3.25,9.21,9.21,0,0,0,.76,4.23q.72,1.41,4.12,3.42,9.72,5.77,12.25,9.48t2.52,11.93c0,4-.46,6.94-1.4,8.83a11,11,0,0,1-5.41,4.76,21.58,21.58,0,0,1-9.34,1.92,20.88,20.88,0,0,1-10-2.22A10.82,10.82,0,0,1,92.68,56a28.71,28.71,0,0,1-1.28-9.72V42.57h13.53v6.82c0,2.1.19,3.45.57,4a2.18,2.18,0,0,0,2,.91,2.37,2.37,0,0,0,2.16-1.15,6.44,6.44,0,0,0,.71-3.39c0-3.3-.45-5.45-1.35-6.47a43.32,43.32,0,0,0-6.81-5.09A68.7,68.7,0,0,1,95,33a12.15,12.15,0,0,1-2.92-4.5A19.64,19.64,0,0,1,91,21.18c0-4.29.54-7.42,1.64-9.41A11.12,11.12,0,0,1,97.9,7.12a21.19,21.19,0,0,1,8.86-1.68,23.11,23.11,0,0,1,9.67,1.83c2.67,1.23,4.43,2.77,5.3,4.62s1.29,5,1.29,9.47Z"/><path class="cls-1" d="M144.79,6.62v56H130.22v-56Z"/><path class="cls-1" d="M186.78,6.62l-8.36,25.29,9.15,30.73h-15l-5.9-24v24H152.05v-56h14.57V28.38l6.49-21.76Z"/><path class="cls-1" d="M207.48,6.62V51.43h8.86V62.64H192.92v-56Z"/><path class="cls-1" d="M252.09,39.42q0,8.44-.4,12a13.37,13.37,0,0,1-8.15,10.88,20.6,20.6,0,0,1-8.31,1.56,21,21,0,0,1-8.08-1.48,13.45,13.45,0,0,1-8.35-10.81,116.8,116.8,0,0,1-.42-12.11V29.84q0-8.44.4-12A13.37,13.37,0,0,1,226.93,7a20.55,20.55,0,0,1,8.3-1.56,21.08,21.08,0,0,1,8.08,1.47,13.43,13.43,0,0,1,8.36,10.82,116.8,116.8,0,0,1,.42,12.11ZM237.52,21a17.77,17.77,0,0,0-.43-5,1.74,1.74,0,0,0-1.79-1.09,2,2,0,0,0-1.74.88c-.41.59-.61,2.33-.61,5.21V47.17a25.4,25.4,0,0,0,.4,6,1.74,1.74,0,0,0,1.85,1.15A1.79,1.79,0,0,0,237.1,53a27.39,27.39,0,0,0,.42-6.26Z"/><path class="cls-1" d="M257.52,6.62h24.67V17.83h-10.1V28.45h9V39.11h-9V62.64H257.52Z"/><path class="cls-1" d="M317.9,6.62V17.83h-8.65V62.64H294.68V17.83h-8.62V6.62Z"/><path class="cls-1" d="M321.22,6.62h24.29V17.83h-9.72V28.45h9.1V39.11h-9.1V51.43h10.69V62.64H321.22Z"/><path class="cls-1" d="M380.5,6.62V17.83h-8.65V62.64H357.29V17.83h-8.62V6.62Z"/></g></svg>